<?xml version="1.0" standalone="no"?>
<svg xmlns:xlink="http://www.w3.org/1999/xlink" id="wave" style="transform:rotate(180deg); transition: 0.3s" viewBox="0 0 1440 100" version="1.1" xmlns="http://www.w3.org/2000/svg"><defs><linearGradient id="sw-gradient-0" x1="0" x2="0" y1="1" y2="0"><stop stop-color="rgba(39, 41, 53, 1)" offset="0%"/><stop stop-color="rgba(35, 37, 47, 1)" offset="100%"/></linearGradient></defs><path style="transform:translate(0, 0px); opacity:1" fill="url(#sw-gradient-0)" d="M0,0L48,15C96,30,192,60,288,61.7C384,63,480,37,576,28.3C672,20,768,30,864,31.7C960,33,1056,27,1152,35C1248,43,1344,67,1440,71.7C1536,77,1632,63,1728,51.7C1824,40,1920,30,2016,23.3C2112,17,2208,13,2304,15C2400,17,2496,23,2592,28.3C2688,33,2784,37,2880,35C2976,33,3072,27,3168,25C3264,23,3360,27,3456,33.3C3552,40,3648,50,3744,51.7C3840,53,3936,47,4032,48.3C4128,50,4224,60,4320,65C4416,70,4512,70,4608,61.7C4704,53,4800,37,4896,31.7C4992,27,5088,33,5184,33.3C5280,33,5376,27,5472,23.3C5568,20,5664,20,5760,31.7C5856,43,5952,67,6048,63.3C6144,60,6240,30,6336,15C6432,0,6528,0,6624,10C6720,20,6816,40,6864,50L6912,60L6912,100L6864,100C6816,100,6720,100,6624,100C6528,100,6432,100,6336,100C6240,100,6144,100,6048,100C5952,100,5856,100,5760,100C5664,100,5568,100,5472,100C5376,100,5280,100,5184,100C5088,100,4992,100,4896,100C4800,100,4704,100,4608,100C4512,100,4416,100,4320,100C4224,100,4128,100,4032,100C3936,100,3840,100,3744,100C3648,100,3552,100,3456,100C3360,100,3264,100,3168,100C3072,100,2976,100,2880,100C2784,100,2688,100,2592,100C2496,100,2400,100,2304,100C2208,100,2112,100,2016,100C1920,100,1824,100,1728,100C1632,100,1536,100,1440,100C1344,100,1248,100,1152,100C1056,100,960,100,864,100C768,100,672,100,576,100C480,100,384,100,288,100C192,100,96,100,48,100L0,100Z"/></svg>