<?xml version="1.0" standalone="no"?>
<svg xmlns:xlink="http://www.w3.org/1999/xlink" id="wave" style="transform:rotate(180deg); transition: 0.3s" viewBox="0 0 1440 100" version="1.1" xmlns="http://www.w3.org/2000/svg"><defs><linearGradient id="sw-gradient-0" x1="0" x2="0" y1="1" y2="0"><stop stop-color="rgba(39, 41, 53, 1)" offset="0%"/><stop stop-color="rgba(35, 37, 47, 1)" offset="100%"/></linearGradient></defs><path style="transform:translate(0, 0px); opacity:1" fill="url(#sw-gradient-0)" d="M0,0L80,15C160,30,320,60,480,61.7C640,63,800,37,960,28.3C1120,20,1280,30,1440,31.7C1600,33,1760,27,1920,35C2080,43,2240,67,2400,71.7C2560,77,2720,63,2880,51.7C3040,40,3200,30,3360,23.3C3520,17,3680,13,3840,15C4000,17,4160,23,4320,28.3C4480,33,4640,37,4800,35C4960,33,5120,27,5280,25C5440,23,5600,27,5760,33.3C5920,40,6080,50,6240,51.7C6400,53,6560,47,6720,48.3C6880,50,7040,60,7200,65C7360,70,7520,70,7680,61.7C7840,53,8000,37,8160,31.7C8320,27,8480,33,8640,33.3C8800,33,8960,27,9120,23.3C9280,20,9440,20,9600,31.7C9760,43,9920,67,10080,63.3C10240,60,10400,30,10560,15C10720,0,10880,0,11040,10C11200,20,11360,40,11440,50L11520,60L11520,100L11440,100C11360,100,11200,100,11040,100C10880,100,10720,100,10560,100C10400,100,10240,100,10080,100C9920,100,9760,100,9600,100C9440,100,9280,100,9120,100C8960,100,8800,100,8640,100C8480,100,8320,100,8160,100C8000,100,7840,100,7680,100C7520,100,7360,100,7200,100C7040,100,6880,100,6720,100C6560,100,6400,100,6240,100C6080,100,5920,100,5760,100C5600,100,5440,100,5280,100C5120,100,4960,100,4800,100C4640,100,4480,100,4320,100C4160,100,4000,100,3840,100C3680,100,3520,100,3360,100C3200,100,3040,100,2880,100C2720,100,2560,100,2400,100C2240,100,2080,100,1920,100C1760,100,1600,100,1440,100C1280,100,1120,100,960,100C800,100,640,100,480,100C320,100,160,100,80,100L0,100Z"/></svg>